<svg width="37" height="32" viewBox="0 0 37 32" fill="none" xmlns="http://www.w3.org/2000/svg">
<g clip-path="url(#clip0)">
<path d="M0 1.69942V6.1926V8.83333H37V5.37803C37 4.8534 36.8053 4.3474 36.4537 3.95803C36.052 3.51317 35.4807 3.25926 34.8813 3.25926H15.5082C15.1619 3.25926 14.8291 3.12449 14.5804 2.88347L13.2864 1.62963L12.1863 0.563677C11.8132 0.202155 11.314 0 10.7945 0H1.69942C1.15957 0 0.65183 0.256498 0.3315 0.691043C0.116169 0.98315 0 1.33652 0 1.69942Z" fill="url(#paint0_linear)"/>
<path d="M0.73431 6.65708C1.11067 6.13958 1.71191 5.83341 2.35178 5.83341H11.52C11.9404 5.83341 12.3501 5.70091 12.6909 5.45478L14.6424 4.04538C14.9832 3.79925 15.393 3.66675 15.8134 3.66675H35C36.1047 3.66675 37 4.56218 37 5.66675V30.0001C37 31.1046 36.1047 32.0001 35 32.0001H2C0.89543 32.0001 0 31.1046 0 30.0001V8.31711C0 7.89441 0.133916 7.48261 0.382527 7.14078L0.73431 6.65708Z" fill="url(#paint1_linear)"/>
<path d="M0.73431 6.65708C1.11067 6.13958 1.71191 5.83341 2.35178 5.83341H11.52C11.9404 5.83341 12.3501 5.70091 12.6909 5.45478L14.6424 4.04538C14.9832 3.79925 15.393 3.66675 15.8134 3.66675H35C36.1047 3.66675 37 4.56218 37 5.66675V30.0001C37 31.1046 36.1047 32.0001 35 32.0001H2C0.89543 32.0001 0 31.1046 0 30.0001V8.31711C0 7.89441 0.133916 7.48261 0.382527 7.14078L0.73431 6.65708Z" fill="url(#paint2_linear)" fill-opacity="0.2"/>
<path d="M6.33325 25.9007V32.0001H30.3333V25.9007C30.3333 24.766 29.8778 23.6789 29.0691 22.883C28.2771 22.1036 27.2105 21.6667 26.0993 21.6667H18.3333H10.5672C9.45602 21.6667 8.38939 22.1036 7.59739 22.883C6.78869 23.6789 6.33325 24.766 6.33325 25.9007Z" fill="url(#paint3_linear)"/>
<path d="M25.1318 26.2593H11.7016C11.5724 26.2593 11.4484 26.31 11.3564 26.4006C11.1605 26.5934 11.1605 26.9093 11.3564 27.1021C11.4484 27.1926 11.5724 27.2434 11.7016 27.2434H25.1318C25.261 27.2434 25.385 27.1926 25.477 27.1021C25.6729 26.9093 25.6729 26.5934 25.477 26.4006C25.385 26.31 25.261 26.2593 25.1318 26.2593Z" fill="#114A8B"/>
</g>
<defs>
<linearGradient id="paint0_linear" x1="5.83333" y1="-7.50133e-07" x2="5.83333" y2="8.66667" gradientUnits="userSpaceOnUse">
<stop offset="0.447917" stop-color="#E09F00"/>
<stop offset="0.925059" stop-color="#9B7822"/>
</linearGradient>
<linearGradient id="paint1_linear" x1="9.16667" y1="3.66675" x2="32.5157" y2="31.7275" gradientUnits="userSpaceOnUse">
<stop stop-color="#FFD355"/>
<stop offset="1" stop-color="#FECA38"/>
</linearGradient>
<linearGradient id="paint2_linear" x1="13.8333" y1="3.16675" x2="15.8333" y2="20.6667" gradientUnits="userSpaceOnUse">
<stop offset="0.12025" stop-color="white"/>
<stop offset="0.235236" stop-color="white" stop-opacity="0"/>
</linearGradient>
<linearGradient id="paint3_linear" x1="6.33325" y1="21.6667" x2="30.2052" y2="32.4476" gradientUnits="userSpaceOnUse">
<stop offset="0.31896" stop-color="#1493DF"/>
<stop offset="1" stop-color="#0062B4"/>
</linearGradient>
<clipPath id="clip0">
<rect width="37" height="32" fill="white"/>
</clipPath>
</defs>
</svg>
